<svg width="20" height="20" viewBox="0 0 20 20" fill="none" xmlns="http://www.w3.org/2000/svg">
<path d="M10 10.0001C10.4583 10.0001 10.8508 9.83675 11.1775 9.51008C11.5036 9.18397 11.6667 8.79175 11.6667 8.33341C11.6667 7.87508 11.5036 7.48258 11.1775 7.15591C10.8508 6.8298 10.4583 6.66675 10 6.66675C9.54167 6.66675 9.14945 6.8298 8.82334 7.15591C8.49667 7.48258 8.33334 7.87508 8.33334 8.33341C8.33334 8.79175 8.49667 9.18397 8.82334 9.51008C9.14945 9.83675 9.54167 10.0001 10 10.0001ZM10 16.1251C11.6944 14.5695 12.9514 13.1562 13.7708 11.8851C14.5903 10.6145 15 9.48619 15 8.50008C15 6.98619 14.5172 5.74647 13.5517 4.78091C12.5867 3.81591 11.4028 3.33341 10 3.33341C8.59722 3.33341 7.41306 3.81591 6.4475 4.78091C5.4825 5.74647 5 6.98619 5 8.50008C5 9.48619 5.40972 10.6145 6.22917 11.8851C7.04861 13.1562 8.30556 14.5695 10 16.1251ZM10 18.3334C7.76389 16.4306 6.09389 14.6631 4.99 13.0309C3.88556 11.3992 3.33334 9.88897 3.33334 8.50008C3.33334 6.41675 4.00361 4.75703 5.34417 3.52091C6.68417 2.2848 8.23611 1.66675 10 1.66675C11.7639 1.66675 13.3158 2.2848 14.6558 3.52091C15.9964 4.75703 16.6667 6.41675 16.6667 8.50008C16.6667 9.88897 16.1147 11.3992 15.0108 13.0309C13.9064 14.6631 12.2361 16.4306 10 18.3334Z" fill="white"/>
</svg>
