<svg width="20" height="20" viewBox="0 0 20 20" fill="none" xmlns="http://www.w3.org/2000/svg">
<path d="M3.125 16.2502C3.125 16.9132 3.38839 17.5491 3.85723 18.018C4.32607 18.4868 4.96196 18.7502 5.625 18.7502H9.21875C9.26019 18.7502 9.29993 18.7337 9.32924 18.7044C9.35854 18.6751 9.375 18.6354 9.375 18.5939V11.4064C9.375 11.365 9.35854 11.3253 9.32924 11.296C9.29993 11.2667 9.26019 11.2502 9.21875 11.2502H3.4375C3.35462 11.2502 3.27513 11.2831 3.21653 11.3417C3.15792 11.4003 3.125 11.4798 3.125 11.5627V16.2502ZM9.375 9.84395V5.6252H10.625V9.84395C10.625 9.88539 10.6415 9.92513 10.6708 9.95443C10.7001 9.98374 10.7398 10.0002 10.7812 10.0002H16.25C16.4629 10.0002 16.6743 9.96386 16.875 9.89278C17.2402 9.7631 17.5564 9.52362 17.7802 9.20716C18.004 8.89071 18.1244 8.51278 18.125 8.1252V7.5002C18.125 7.00292 17.9275 6.526 17.5758 6.17437C17.2242 5.82274 16.7473 5.6252 16.25 5.6252H14.6664C14.6528 5.62498 14.6395 5.62121 14.6278 5.61427C14.6161 5.60732 14.6064 5.59744 14.5997 5.5856C14.593 5.57376 14.5895 5.56037 14.5895 5.54676C14.5896 5.53315 14.5932 5.5198 14.6 5.50801C14.9617 4.89742 15.0791 4.17268 14.9288 3.47912C14.7785 2.78555 14.3716 2.17444 13.7897 1.76831C13.2077 1.36218 12.4937 1.19107 11.7909 1.28928C11.0881 1.38749 10.4483 1.74776 10 2.29786C9.55166 1.74776 8.91193 1.38749 8.2091 1.28928C7.50627 1.19107 6.79229 1.36218 6.21033 1.76831C5.62837 2.17444 5.22145 2.78555 5.07117 3.47912C4.92088 4.17268 5.03835 4.89742 5.4 5.50801C5.40681 5.5198 5.41042 5.53315 5.41047 5.54676C5.41053 5.56037 5.40703 5.57376 5.40032 5.5856C5.39361 5.59744 5.38392 5.60732 5.37222 5.61427C5.36052 5.62121 5.3472 5.62498 5.33359 5.6252H3.75C3.25272 5.6252 2.77581 5.82274 2.42417 6.17437C2.07254 6.526 1.875 7.00292 1.875 7.5002V8.1252C1.87555 8.51278 1.99598 8.89071 2.21977 9.20716C2.44356 9.52362 2.75975 9.7631 3.125 9.89278C3.32571 9.96386 3.53707 10.0002 3.75 10.0002H9.21875C9.26019 10.0002 9.29993 9.98374 9.32924 9.95443C9.35854 9.92513 9.375 9.88539 9.375 9.84395ZM10.625 4.0627C10.625 3.75367 10.7166 3.45157 10.8883 3.19462C11.06 2.93767 11.304 2.7374 11.5896 2.61914C11.8751 2.50088 12.1892 2.46993 12.4923 2.53022C12.7954 2.59051 13.0738 2.73933 13.2924 2.95784C13.5109 3.17636 13.6597 3.45478 13.72 3.75787C13.7803 4.06097 13.7493 4.37513 13.6311 4.66064C13.5128 4.94615 13.3125 5.19018 13.0556 5.36187C12.7986 5.53356 12.4965 5.6252 12.1875 5.6252H10.625V4.0627ZM7.70078 2.50411C7.91484 2.48876 8.12977 2.51768 8.33216 2.58905C8.53456 2.66043 8.72008 2.77274 8.87716 2.91897C9.03424 3.0652 9.15951 3.24222 9.24516 3.439C9.33081 3.63578 9.37501 3.84809 9.375 4.0627V5.6252H7.8125C7.40847 5.62416 7.02055 5.46666 6.73016 5.18576C6.43976 4.90485 6.26946 4.52237 6.25501 4.1186C6.24056 3.71483 6.38307 3.32116 6.65263 3.02021C6.9222 2.71926 7.29786 2.53442 7.70078 2.5045V2.50411ZM10.7812 18.7502H14.375C15.038 18.7502 15.6739 18.4868 16.1428 18.018C16.6116 17.5491 16.875 16.9132 16.875 16.2502V11.5627C16.875 11.4798 16.8421 11.4003 16.7835 11.3417C16.7249 11.2831 16.6454 11.2502 16.5625 11.2502H10.7812C10.7398 11.2502 10.7001 11.2667 10.6708 11.296C10.6415 11.3253 10.625 11.365 10.625 11.4064V18.5939C10.625 18.6354 10.6415 18.6751 10.6708 18.7044C10.7001 18.7337 10.7398 18.7502 10.7812 18.7502Z" fill="#464665"/>
</svg>
