<svg width="20" height="20" viewBox="0 0 20 20" fill="none" xmlns="http://www.w3.org/2000/svg">
<path d="M10 16.6667C8.4529 16.6667 6.96917 16.0521 5.87521 14.9582C4.78125 13.8642 4.16666 12.3805 4.16666 10.8334C4.16666 9.28629 4.78125 7.80256 5.87521 6.70859C6.96917 5.61463 8.4529 5.00005 10 5.00005C11.5471 5.00005 13.0308 5.61463 14.1248 6.70859C15.2187 7.80256 15.8333 9.28629 15.8333 10.8334C15.8333 12.3805 15.2187 13.8642 14.1248 14.9582C13.0308 16.0521 11.5471 16.6667 10 16.6667ZM10 3.33338C8.01087 3.33338 6.10322 4.12356 4.6967 5.53008C3.29017 6.9366 2.5 8.84426 2.5 10.8334C2.5 12.8225 3.29017 14.7302 4.6967 16.1367C6.10322 17.5432 8.01087 18.3334 10 18.3334C11.9891 18.3334 13.8968 17.5432 15.3033 16.1367C16.7098 14.7302 17.5 12.8225 17.5 10.8334C17.5 8.84426 16.7098 6.9366 15.3033 5.53008C13.8968 4.12356 11.9891 3.33338 10 3.33338ZM10.4167 6.66672H9.16666V11.6667L13.125 14.0417L13.75 13.0167L10.4167 11.0417V6.66672ZM6.56666 2.82505L5.5 1.55005L1.66666 4.75838L2.74166 6.03338L6.56666 2.82505ZM18.3333 4.76672L14.5 1.55005L13.425 2.82505L17.2583 6.04172L18.3333 4.76672Z" fill="white"/>
</svg>
