<svg width="20" height="20" viewBox="0 0 20 20" fill="none" xmlns="http://www.w3.org/2000/svg">
<path d="M11.402 12.2459C12.027 12.2459 12.586 11.7619 12.586 11.0659C12.586 10.2339 12.059 9.83594 11.426 9.83594C10.84 9.83594 10.258 10.2229 10.258 11.0459C10.258 11.8629 10.801 12.2459 11.402 12.2459Z" fill="#464665"/>
<path d="M5.5 2C5.63261 2 5.75979 2.05268 5.85355 2.14645C5.94732 2.24021 6 2.36739 6 2.5V3H14V2.5C14 2.36739 14.0527 2.24021 14.1464 2.14645C14.2402 2.05268 14.3674 2 14.5 2C14.6326 2 14.7598 2.05268 14.8536 2.14645C14.9473 2.24021 15 2.36739 15 2.5V3H16C16.5304 3 17.0391 3.21071 17.4142 3.58579C17.7893 3.96086 18 4.46957 18 5V16C18 16.5304 17.7893 17.0391 17.4142 17.4142C17.0391 17.7893 16.5304 18 16 18H4C3.46957 18 2.96086 17.7893 2.58579 17.4142C2.21071 17.0391 2 16.5304 2 16V5C2 4.46957 2.21071 3.96086 2.58579 3.58579C2.96086 3.21071 3.46957 3 4 3H5V2.5C5 2.36739 5.05268 2.24021 5.14645 2.14645C5.24021 2.05268 5.36739 2 5.5 2V2ZM15.454 5H4.545C4.245 5 4 5.224 4 5.5V6.5C4 6.776 4.244 7 4.545 7H15.455C15.755 7 16 6.776 16 6.5V5.5C16 5.224 15.756 5 15.454 5ZM11.336 14.79C12.594 14.79 13.336 13.723 13.336 11.918C13.336 9.984 12.555 9.25 11.383 9.25C10.457 9.25 9.586 9.922 9.586 11.059C9.586 12.219 10.41 12.829 11.262 12.829C12.008 12.829 12.492 12.453 12.645 12.039H12.672C12.668 13.355 12.211 14.203 11.367 14.203C10.703 14.203 10.359 13.753 10.317 13.383H9.633C9.68 14.023 10.227 14.789 11.336 14.789V14.79ZM8.446 9.355H7.813C7.35933 9.59631 6.92084 9.86514 6.5 10.16V10.855C6.875 10.598 7.469 10.235 7.758 10.078H7.77V14.688H8.445V9.354L8.446 9.355Z" fill="#464665"/>
</svg>
