<svg width="20" height="20" viewBox="0 0 20 20" fill="none" xmlns="http://www.w3.org/2000/svg">
<path d="M5 17.4998C4.54167 17.4998 4.14945 17.3368 3.82334 17.0107C3.49667 16.684 3.33334 16.2915 3.33334 15.8332V8.33317C3.33334 8.06928 3.3925 7.81928 3.51084 7.58317C3.62861 7.34706 3.79167 7.15261 4 6.99984L9 3.24984C9.15278 3.13873 9.3125 3.05539 9.47917 2.99984C9.64584 2.94428 9.81945 2.9165 10 2.9165C10.1806 2.9165 10.3542 2.94428 10.5208 2.99984C10.6875 3.05539 10.8472 3.13873 11 3.24984L16 6.99984C16.2083 7.15261 16.3717 7.34706 16.49 7.58317C16.6078 7.81928 16.6667 8.06928 16.6667 8.33317V15.8332C16.6667 16.2915 16.5036 16.684 16.1775 17.0107C15.8508 17.3368 15.4583 17.4998 15 17.4998H11.6667V11.6665H8.33334V17.4998H5Z" fill="#6D4B64"/>
</svg>
