<svg width="20" height="20" viewBox="0 0 20 20" fill="none" xmlns="http://www.w3.org/2000/svg">
<path d="M14.1667 9.1665H12.5V7.49984H14.1667M10.8333 9.1665H9.16666V7.49984H10.8333M7.49999 9.1665H5.83332V7.49984H7.49999M16.6667 1.6665H3.33332C2.8913 1.6665 2.46737 1.8421 2.15481 2.15466C1.84225 2.46722 1.66666 2.89114 1.66666 3.33317V18.3332L4.99999 14.9998H16.6667C17.1087 14.9998 17.5326 14.8242 17.8452 14.5117C18.1577 14.1991 18.3333 13.7752 18.3333 13.3332V3.33317C18.3333 2.89114 18.1577 2.46722 17.8452 2.15466C17.5326 1.8421 17.1087 1.6665 16.6667 1.6665Z" fill="#464665"/>
</svg>
