<svg width="20" height="20" viewBox="0 0 20 20" fill="none" xmlns="http://www.w3.org/2000/svg">
<path d="M6.66667 10.0002C7.55073 10.0002 8.39857 9.64897 9.02369 9.02385C9.64882 8.39873 10 7.55088 10 6.66683C10 5.78277 9.64882 4.93493 9.02369 4.30981C8.39857 3.68469 7.55073 3.3335 6.66667 3.3335C5.78262 3.3335 4.93477 3.68469 4.30965 4.30981C3.68453 4.93493 3.33334 5.78277 3.33334 6.66683C3.33334 7.55088 3.68453 8.39873 4.30965 9.02385C4.93477 9.64897 5.78262 10.0002 6.66667 10.0002ZM14.1667 10.0002C14.8297 10.0002 15.4656 9.73677 15.9344 9.26793C16.4033 8.79909 16.6667 8.1632 16.6667 7.50016C16.6667 6.83712 16.4033 6.20124 15.9344 5.7324C15.4656 5.26356 14.8297 5.00016 14.1667 5.00016C13.5036 5.00016 12.8677 5.26356 12.3989 5.7324C11.9301 6.20124 11.6667 6.83712 11.6667 7.50016C11.6667 8.1632 11.9301 8.79909 12.3989 9.26793C12.8677 9.73677 13.5036 10.0002 14.1667 10.0002ZM3.54167 11.6668C3.04439 11.6668 2.56748 11.8644 2.21585 12.216C1.86422 12.5676 1.66667 13.0445 1.66667 13.5418V13.7502C1.66667 13.7502 1.66667 17.5002 6.66667 17.5002C11.6667 17.5002 11.6667 13.7502 11.6667 13.7502V13.5418C11.6667 13.0445 11.4691 12.5676 11.1175 12.216C10.7659 11.8644 10.289 11.6668 9.79167 11.6668H3.54167ZM14.1667 16.2502C13.1908 16.2502 12.4433 16.0993 11.8708 15.8685C12.204 15.3062 12.4131 14.6791 12.4842 14.0293C12.4923 13.9504 12.4976 13.8712 12.5 13.7918V13.5418C12.5011 12.8437 12.2317 12.1723 11.7483 11.6685C11.7767 11.6673 11.805 11.6668 11.8333 11.6668H16.5C16.9862 11.6668 17.4525 11.86 17.7964 12.2038C18.1402 12.5476 18.3333 13.0139 18.3333 13.5002C18.3333 13.5002 18.3333 16.2502 14.1667 16.2502Z" fill="#464665"/>
</svg>
